<svg xmlns="http://www.w3.org/2000/svg" viewBox="0 0 682.96 295.29"><defs><style>.cls-1{fill:#fff;}</style></defs><g id="Layer_2" data-name="Layer 2"><g id="Logos"><g id="_Cidade" data-name=" Cidade"><path class="cls-1" d="M683,295.29H0V145.51H23.09V127.92H38.55V89H57.74v40.51l14.39,5.33v12.79H78v-5.86h25.59v5.86h8.53V170h5.33V123.12h8V62.89h3.82v-8.7l18.12-7.64V63.43h7.29V183.62h5.68v-9.15h2.4V119.13l20.34,10.39v27.09H189v-8.79h7.46V78.26h3.82V57.21l8.62-9,8.35,9.07V78l3.91.09v56.68h3.64V123.21h3V105.36h5.68v-24h8.89v40.78h5.95V105.62l7.28-6.13V84.3h4.8V73.55h6.93v43.53h6.13v44.6H284v13.77l9.6-1.69,19.1,9.06v12.62l23.72,9.23s2.3,1,3.9,0,6.4-4.68,11.82.46S364,207,364,207s2.76-2.75,9.95,1.6,25.94,5.76,47.26,5.69,61.17,0,61.17,0,9.92-16.13,20.12-9.6c4.26,2.67,8.39,1.34,11.72-2.53s21.15-23.85,37.25-20.32A84.66,84.66,0,0,0,548.9,172l4-1.91-4.48.54a99.66,99.66,0,0,0-4.11-10l4.41-2.14-5.19.53c-1.68-3.41-3.45-6.56-5.18-9.39l4.24-2h-5.47a108.68,108.68,0,0,0-10.07-13.59l-3.47,4.8,3.2,3.86-4.66,4.8,5.73.27,3.73,6.39-4.13,3.73,5.59-.13s.4,3.73,1.14,9.33c-30.91-5.53-19.79-38.25-19.79-38.25l-5.47,3.2,2.27,3.33-1.07,5.6-6.39.8,4.39,5.6s-4.46,10.86-7.46,17.85c-17.8-27,7.7-43.11,10.08-44.54l-7.81,3.77-3.33-.8.06,3.59-6.73,4.27c-.46-14.46,15.59-16.59,17.59-16.93,1.4-22,23.05-22.38,23.05-22.38l-4.53,6H526l1.07,2.82a125.54,125.54,0,0,0-7.2,11.46c20.85-26.38,42.91-8.13,42.91-8.13l-7.6,3.6-4.13-3.6,1.33,5.07-7.19,3.2-6.53-4.54.27,6.33-9.6,2.2c27.65-5.93,35.31,19.72,35.31,19.72L545.31,131l-1.73-5.74-1.73,4.87-5.2-1a167.44,167.44,0,0,1,13.58,20.53l-3.1,2,3.93-.49c1.86,3.4,3.51,6.69,5,9.8l-3.11,2,3.69-.71c2.15,4.71,3.84,9,5.15,12.65l-3.51,2.1,4-.76c1.84,5.3,2.83,9.16,3.25,10.91h0c1.75.93,3.37,1.88,4.85,2.82,7.25-10.51,15.07-31.3,6.75-68.42-13.15-61.55-64.32-73-64.32-73l-2.31,6.75,3.91,3.38-4.08,6.57,6.93-1.6,6.21,6.75-3.9,4.45,6.57-.36s1.24,2.84,3.55,9.42c-36.95-.71-31.8-38.73-31.8-38.73L492,50.63l3.55,3.56v6.39l-7.11,2,6.4,5.33-3.38,21.94-8.17-11.64c-12.7-17.94,8.35-40.51,8.35-40.51l-8.35,6.22-3-1.42.18,5.51s-.8,1.24-5.33,4.26c-5.16-11.9,7.73-18.3,14.74-21.32C484.5,6.66,510.09,0,510.09,0l-3.73,7.46-4.09.71,2,3.55s-1.34,3.73-4.62,14.57c17.5-36,45.84-19.19,45.84-19.19l-7.82,5.16-5.51-3,3,5.15-7.82,5.68-7.64-3.19,2,6.21s-.27.57-10.49,5.45c32.7-12.14,44.42,13.39,44.42,13.39l-22.56-1-3.73-6.51L529,40.33s-3.52.71-10.45,2c14.52.4,43,13.46,63.69,60.23,19.87,45.3,11.12,75.39,4.66,88.69,8.35-4.69,22.58-6.41,34.92,23C640.65,259.17,683,295.29,683,295.29Z"/></g></g></g></svg>