<svg xmlns="http://www.w3.org/2000/svg" viewBox="0 0 466.53 469.37"><defs><style>.cls-1{fill:#fff;}</style></defs><g id="Layer_2" data-name="Layer 2"><g id="Logos"><g id="Monocromatico"><g id="Tipografia"><path class="cls-1" d="M427,307.63H409.22a1.12,1.12,0,0,0-1.12,1.12v19.9a1.12,1.12,0,0,0,1.12,1.12H427a1.12,1.12,0,0,0,1.12-1.12v-19.9A1.12,1.12,0,0,0,427,307.63Zm0,0H409.22a1.12,1.12,0,0,0-1.12,1.12v19.9a1.12,1.12,0,0,0,1.12,1.12H427a1.12,1.12,0,0,0,1.12-1.12v-19.9A1.12,1.12,0,0,0,427,307.63Zm-146.55,0H262.67a1.12,1.12,0,0,0-1.12,1.12v19.9a1.12,1.12,0,0,0,1.12,1.12h17.81a1.12,1.12,0,0,0,1.12-1.12v-19.9A1.12,1.12,0,0,0,280.48,307.63Zm146.55,0H409.22a1.12,1.12,0,0,0-1.12,1.12v19.9a1.12,1.12,0,0,0,1.12,1.12H427a1.12,1.12,0,0,0,1.12-1.12v-19.9A1.12,1.12,0,0,0,427,307.63Zm0,0H409.22a1.12,1.12,0,0,0-1.12,1.12v19.9a1.12,1.12,0,0,0,1.12,1.12H427a1.12,1.12,0,0,0,1.12-1.12v-19.9A1.12,1.12,0,0,0,427,307.63Zm-146.55,0H262.67a1.12,1.12,0,0,0-1.12,1.12v19.9a1.12,1.12,0,0,0,1.12,1.12h17.81a1.12,1.12,0,0,0,1.12-1.12v-19.9A1.12,1.12,0,0,0,280.48,307.63Zm-149.57,0H113.1a1.12,1.12,0,0,0-1.12,1.12v19.9a1.12,1.12,0,0,0,1.12,1.12h17.81a1.12,1.12,0,0,0,1.12-1.12v-19.9A1.12,1.12,0,0,0,130.91,307.63Zm149.57,0H262.67a1.12,1.12,0,0,0-1.12,1.12v19.9a1.12,1.12,0,0,0,1.12,1.12h17.81a1.12,1.12,0,0,0,1.12-1.12v-19.9A1.12,1.12,0,0,0,280.48,307.63Zm146.55,0H409.22a1.12,1.12,0,0,0-1.12,1.12v19.9a1.12,1.12,0,0,0,1.12,1.12H427a1.12,1.12,0,0,0,1.12-1.12v-19.9A1.12,1.12,0,0,0,427,307.63Zm0,0H409.22a1.12,1.12,0,0,0-1.12,1.12v19.9a1.12,1.12,0,0,0,1.12,1.12H427a1.12,1.12,0,0,0,1.12-1.12v-19.9A1.12,1.12,0,0,0,427,307.63Zm-146.55,0H262.67a1.12,1.12,0,0,0-1.12,1.12v19.9a1.12,1.12,0,0,0,1.12,1.12h17.81a1.12,1.12,0,0,0,1.12-1.12v-19.9A1.12,1.12,0,0,0,280.48,307.63Zm-149.57,0H113.1a1.12,1.12,0,0,0-1.12,1.12v19.9a1.12,1.12,0,0,0,1.12,1.12h17.81a1.12,1.12,0,0,0,1.12-1.12v-19.9A1.12,1.12,0,0,0,130.91,307.63Zm0,0H113.1a1.12,1.12,0,0,0-1.12,1.12v19.9a1.12,1.12,0,0,0,1.12,1.12h17.81a1.12,1.12,0,0,0,1.12-1.12v-19.9A1.12,1.12,0,0,0,130.91,307.63Zm149.57,0H262.67a1.12,1.12,0,0,0-1.12,1.12v19.9a1.12,1.12,0,0,0,1.12,1.12h17.81a1.12,1.12,0,0,0,1.12-1.12v-19.9A1.12,1.12,0,0,0,280.48,307.63Zm146.55,0H409.22a1.12,1.12,0,0,0-1.12,1.12v19.9a1.12,1.12,0,0,0,1.12,1.12H427a1.12,1.12,0,0,0,1.12-1.12v-19.9A1.12,1.12,0,0,0,427,307.63Zm0,0H409.22a1.12,1.12,0,0,0-1.12,1.12v19.9a1.12,1.12,0,0,0,1.12,1.12H427a1.12,1.12,0,0,0,1.12-1.12v-19.9A1.12,1.12,0,0,0,427,307.63Zm-146.55,0H262.67a1.12,1.12,0,0,0-1.12,1.12v19.9a1.12,1.12,0,0,0,1.12,1.12h17.81a1.12,1.12,0,0,0,1.12-1.12v-19.9A1.12,1.12,0,0,0,280.48,307.63Zm-149.57,0H113.1a1.12,1.12,0,0,0-1.12,1.12v19.9a1.12,1.12,0,0,0,1.12,1.12h17.81a1.12,1.12,0,0,0,1.12-1.12v-19.9A1.12,1.12,0,0,0,130.91,307.63ZM104.28,428.18a4,4,0,0,0-1.56-1.51,5.1,5.1,0,0,0-2.41-.55H96.77v8.23h3.54a5.48,5.48,0,0,0,2.44-.51,3.87,3.87,0,0,0,1.55-1.39,3.54,3.54,0,0,0,.56-2A4.33,4.33,0,0,0,104.28,428.18Zm26.63-120.55H113.1a1.12,1.12,0,0,0-1.12,1.12v19.9a1.12,1.12,0,0,0,1.12,1.12h17.81a1.12,1.12,0,0,0,1.12-1.12v-19.9A1.12,1.12,0,0,0,130.91,307.63Zm18.58,124a9.1,9.1,0,0,0-2-3.12,9,9,0,0,0-3-2.07,10.44,10.44,0,0,0-7.72,0,8.88,8.88,0,0,0-3,2.06,9.69,9.69,0,0,0-2,3.14,11.26,11.26,0,0,0,0,7.87,9.59,9.59,0,0,0,2,3.14,9.11,9.11,0,0,0,3,2.08,10.26,10.26,0,0,0,7.7,0,9.19,9.19,0,0,0,5-5.21,11.47,11.47,0,0,0,0-7.89Zm131-124H262.67a1.12,1.12,0,0,0-1.12,1.12v19.9a1.12,1.12,0,0,0,1.12,1.12h17.81a1.12,1.12,0,0,0,1.12-1.12v-19.9A1.12,1.12,0,0,0,280.48,307.63Zm146.55,0H409.22a1.12,1.12,0,0,0-1.12,1.12v19.9a1.12,1.12,0,0,0,1.12,1.12H427a1.12,1.12,0,0,0,1.12-1.12v-19.9A1.12,1.12,0,0,0,427,307.63Zm0,0H409.22a1.12,1.12,0,0,0-1.12,1.12v19.9a1.12,1.12,0,0,0,1.12,1.12H427a1.12,1.12,0,0,0,1.12-1.12v-19.9A1.12,1.12,0,0,0,427,307.63Zm-146.55,0H262.67a1.12,1.12,0,0,0-1.12,1.12v19.9a1.12,1.12,0,0,0,1.12,1.12h17.81a1.12,1.12,0,0,0,1.12-1.12v-19.9A1.12,1.12,0,0,0,280.48,307.63Zm-131,124a9.1,9.1,0,0,0-2-3.12,9,9,0,0,0-3-2.07,10.44,10.44,0,0,0-7.72,0,8.88,8.88,0,0,0-3,2.06,9.69,9.69,0,0,0-2,3.14,11.26,11.26,0,0,0,0,7.87,9.59,9.59,0,0,0,2,3.14,9.11,9.11,0,0,0,3,2.08,10.26,10.26,0,0,0,7.7,0,9.19,9.19,0,0,0,5-5.21,11.47,11.47,0,0,0,0-7.89Zm-18.58-124H113.1a1.12,1.12,0,0,0-1.12,1.12v19.9a1.12,1.12,0,0,0,1.12,1.12h17.81a1.12,1.12,0,0,0,1.12-1.12v-19.9A1.12,1.12,0,0,0,130.91,307.63ZM104.28,428.18a4,4,0,0,0-1.56-1.51,5.1,5.1,0,0,0-2.41-.55H96.77v8.23h3.54a5.48,5.48,0,0,0,2.44-.51,3.87,3.87,0,0,0,1.55-1.39,3.54,3.54,0,0,0,.56-2A4.33,4.33,0,0,0,104.28,428.18Zm0,0a4,4,0,0,0-1.56-1.51,5.1,5.1,0,0,0-2.41-.55H96.77v8.23h3.54a5.48,5.48,0,0,0,2.44-.51,3.87,3.87,0,0,0,1.55-1.39,3.54,3.54,0,0,0,.56-2A4.33,4.33,0,0,0,104.28,428.18Zm26.63-120.55H113.1a1.12,1.12,0,0,0-1.12,1.12v19.9a1.12,1.12,0,0,0,1.12,1.12h17.81a1.12,1.12,0,0,0,1.12-1.12v-19.9A1.12,1.12,0,0,0,130.91,307.63Zm18.58,124a9.1,9.1,0,0,0-2-3.12,9,9,0,0,0-3-2.07,10.44,10.44,0,0,0-7.72,0,8.88,8.88,0,0,0-3,2.06,9.69,9.69,0,0,0-2,3.14,11.26,11.26,0,0,0,0,7.87,9.59,9.59,0,0,0,2,3.14,9.11,9.11,0,0,0,3,2.08,10.26,10.26,0,0,0,7.7,0,9.19,9.19,0,0,0,5-5.21,11.47,11.47,0,0,0,0-7.89ZM261,428.39a4.33,4.33,0,0,0-1.59-1.67,4.54,4.54,0,0,0-2.37-.6h-4.25v9.3H257a4.64,4.64,0,0,0,2.38-.58,4.23,4.23,0,0,0,1.59-1.58,4.6,4.6,0,0,0,.58-2.35A5.18,5.18,0,0,0,261,428.39Zm19.49-120.76H262.67a1.12,1.12,0,0,0-1.12,1.12v19.9a1.12,1.12,0,0,0,1.12,1.12h17.81a1.12,1.12,0,0,0,1.12-1.12v-19.9A1.12,1.12,0,0,0,280.48,307.63Zm146.55,0H409.22a1.12,1.12,0,0,0-1.12,1.12v19.9a1.12,1.12,0,0,0,1.12,1.12H427a1.12,1.12,0,0,0,1.12-1.12v-19.9A1.12,1.12,0,0,0,427,307.63Zm0,0H409.22a1.12,1.12,0,0,0-1.12,1.12v19.9a1.12,1.12,0,0,0,1.12,1.12H427a1.12,1.12,0,0,0,1.12-1.12v-19.9A1.12,1.12,0,0,0,427,307.63Zm-146.55,0H262.67a1.12,1.12,0,0,0-1.12,1.12v19.9a1.12,1.12,0,0,0,1.12,1.12h17.81a1.12,1.12,0,0,0,1.12-1.12v-19.9A1.12,1.12,0,0,0,280.48,307.63ZM261,428.39a4.33,4.33,0,0,0-1.59-1.67,4.54,4.54,0,0,0-2.37-.6h-4.25v9.3H257a4.64,4.64,0,0,0,2.38-.58,4.23,4.23,0,0,0,1.59-1.58,4.6,4.6,0,0,0,.58-2.35A5.18,5.18,0,0,0,261,428.39Zm-111.5,3.23a9.1,9.1,0,0,0-2-3.12,9,9,0,0,0-3-2.07,10.44,10.44,0,0,0-7.72,0,8.88,8.88,0,0,0-3,2.06,9.69,9.69,0,0,0-2,3.14,11.26,11.26,0,0,0,0,7.87,9.59,9.59,0,0,0,2,3.14,9.11,9.11,0,0,0,3,2.08,10.26,10.26,0,0,0,7.7,0,9.19,9.19,0,0,0,5-5.21,11.47,11.47,0,0,0,0-7.89Zm-18.58-124H113.1a1.12,1.12,0,0,0-1.12,1.12v19.9a1.12,1.12,0,0,0,1.12,1.12h17.81a1.12,1.12,0,0,0,1.12-1.12v-19.9A1.12,1.12,0,0,0,130.91,307.63ZM104.28,428.18a4,4,0,0,0-1.56-1.51,5.1,5.1,0,0,0-2.41-.55H96.77v8.23h3.54a5.48,5.48,0,0,0,2.44-.51,3.87,3.87,0,0,0,1.55-1.39,3.54,3.54,0,0,0,.56-2A4.33,4.33,0,0,0,104.28,428.18Zm0,0a4,4,0,0,0-1.56-1.51,5.1,5.1,0,0,0-2.41-.55H96.77v8.23h3.54a5.48,5.48,0,0,0,2.44-.51,3.87,3.87,0,0,0,1.55-1.39,3.54,3.54,0,0,0,.56-2A4.33,4.33,0,0,0,104.28,428.18Zm26.63-120.55H113.1a1.12,1.12,0,0,0-1.12,1.12v19.9a1.12,1.12,0,0,0,1.12,1.12h17.81a1.12,1.12,0,0,0,1.12-1.12v-19.9A1.12,1.12,0,0,0,130.91,307.63Zm18.58,124a9.1,9.1,0,0,0-2-3.12,9,9,0,0,0-3-2.07,10.44,10.44,0,0,0-7.72,0,8.88,8.88,0,0,0-3,2.06,9.69,9.69,0,0,0-2,3.14,11.26,11.26,0,0,0,0,7.87,9.59,9.59,0,0,0,2,3.14,9.11,9.11,0,0,0,3,2.08,10.26,10.26,0,0,0,7.7,0,9.19,9.19,0,0,0,5-5.21,11.47,11.47,0,0,0,0-7.89ZM261,428.39a4.33,4.33,0,0,0-1.59-1.67,4.54,4.54,0,0,0-2.37-.6h-4.25v9.3H257a4.64,4.64,0,0,0,2.38-.58,4.23,4.23,0,0,0,1.59-1.58,4.6,4.6,0,0,0,.58-2.35A5.18,5.18,0,0,0,261,428.39Zm19.49-120.76H262.67a1.12,1.12,0,0,0-1.12,1.12v19.9a1.12,1.12,0,0,0,1.12,1.12h17.81a1.12,1.12,0,0,0,1.12-1.12v-19.9A1.12,1.12,0,0,0,280.48,307.63Zm48.17,122.69-3.67,9h7.28ZM427,307.63H409.22a1.12,1.12,0,0,0-1.12,1.12v19.9a1.12,1.12,0,0,0,1.12,1.12H427a1.12,1.12,0,0,0,1.12-1.12v-19.9A1.12,1.12,0,0,0,427,307.63Zm0,0H409.22a1.12,1.12,0,0,0-1.12,1.12v19.9a1.12,1.12,0,0,0,1.12,1.12H427a1.12,1.12,0,0,0,1.12-1.12v-19.9A1.12,1.12,0,0,0,427,307.63ZM328.65,430.32l-3.67,9h7.28ZM280.48,307.63H262.67a1.12,1.12,0,0,0-1.12,1.12v19.9a1.12,1.12,0,0,0,1.12,1.12h17.81a1.12,1.12,0,0,0,1.12-1.12v-19.9A1.12,1.12,0,0,0,280.48,307.63ZM261,428.39a4.33,4.33,0,0,0-1.59-1.67,4.54,4.54,0,0,0-2.37-.6h-4.25v9.3H257a4.64,4.64,0,0,0,2.38-.58,4.23,4.23,0,0,0,1.59-1.58,4.6,4.6,0,0,0,.58-2.35A5.18,5.18,0,0,0,261,428.39Zm-111.5,3.23a9.1,9.1,0,0,0-2-3.12,9,9,0,0,0-3-2.07,10.44,10.44,0,0,0-7.72,0,8.88,8.88,0,0,0-3,2.06,9.69,9.69,0,0,0-2,3.14,11.26,11.26,0,0,0,0,7.87,9.59,9.59,0,0,0,2,3.14,9.11,9.11,0,0,0,3,2.08,10.26,10.26,0,0,0,7.7,0,9.19,9.19,0,0,0,5-5.21,11.47,11.47,0,0,0,0-7.89Zm-18.58-124H113.1a1.12,1.12,0,0,0-1.12,1.12v19.9a1.12,1.12,0,0,0,1.12,1.12h17.81a1.12,1.12,0,0,0,1.12-1.12v-19.9A1.12,1.12,0,0,0,130.91,307.63ZM104.28,428.18a4,4,0,0,0-1.56-1.51,5.1,5.1,0,0,0-2.41-.55H96.77v8.23h3.54a5.48,5.48,0,0,0,2.44-.51,3.87,3.87,0,0,0,1.55-1.39,3.54,3.54,0,0,0,.56-2A4.33,4.33,0,0,0,104.28,428.18Zm0,0a4,4,0,0,0-1.56-1.51,5.1,5.1,0,0,0-2.41-.55H96.77v8.23h3.54a5.48,5.48,0,0,0,2.44-.51,3.87,3.87,0,0,0,1.55-1.39,3.54,3.54,0,0,0,.56-2A4.33,4.33,0,0,0,104.28,428.18Zm26.63-120.55H113.1a1.12,1.12,0,0,0-1.12,1.12v19.9a1.12,1.12,0,0,0,1.12,1.12h17.81a1.12,1.12,0,0,0,1.12-1.12v-19.9A1.12,1.12,0,0,0,130.91,307.63Zm18.58,124a9.1,9.1,0,0,0-2-3.12,9,9,0,0,0-3-2.07,10.44,10.44,0,0,0-7.72,0,8.88,8.88,0,0,0-3,2.06,9.69,9.69,0,0,0-2,3.14,11.26,11.26,0,0,0,0,7.87,9.59,9.59,0,0,0,2,3.14,9.11,9.11,0,0,0,3,2.08,10.26,10.26,0,0,0,7.7,0,9.19,9.19,0,0,0,5-5.21,11.47,11.47,0,0,0,0-7.89ZM261,428.39a4.33,4.33,0,0,0-1.59-1.67,4.54,4.54,0,0,0-2.37-.6h-4.25v9.3H257a4.64,4.64,0,0,0,2.38-.58,4.23,4.23,0,0,0,1.59-1.58,4.6,4.6,0,0,0,.58-2.35A5.18,5.18,0,0,0,261,428.39Zm19.49-120.76H262.67a1.12,1.12,0,0,0-1.12,1.12v19.9a1.12,1.12,0,0,0,1.12,1.12h17.81a1.12,1.12,0,0,0,1.12-1.12v-19.9A1.12,1.12,0,0,0,280.48,307.63Zm48.17,122.69-3.67,9h7.28ZM427,307.63H409.22a1.12,1.12,0,0,0-1.12,1.12v19.9a1.12,1.12,0,0,0,1.12,1.12H427a1.12,1.12,0,0,0,1.12-1.12v-19.9A1.12,1.12,0,0,0,427,307.63Zm0,0H409.22a1.12,1.12,0,0,0-1.12,1.12v19.9a1.12,1.12,0,0,0,1.12,1.12H427a1.12,1.12,0,0,0,1.12-1.12v-19.9A1.12,1.12,0,0,0,427,307.63ZM328.65,430.32l-3.67,9h7.28ZM280.48,307.63H262.67a1.12,1.12,0,0,0-1.12,1.12v19.9a1.12,1.12,0,0,0,1.12,1.12h17.81a1.12,1.12,0,0,0,1.12-1.12v-19.9A1.12,1.12,0,0,0,280.48,307.63ZM261,428.39a4.33,4.33,0,0,0-1.59-1.67,4.54,4.54,0,0,0-2.37-.6h-4.25v9.3H257a4.64,4.64,0,0,0,2.38-.58,4.23,4.23,0,0,0,1.59-1.58,4.6,4.6,0,0,0,.58-2.35A5.18,5.18,0,0,0,261,428.39Zm-111.5,3.23a9.1,9.1,0,0,0-2-3.12,9,9,0,0,0-3-2.07,10.44,10.44,0,0,0-7.72,0,8.88,8.88,0,0,0-3,2.06,9.69,9.69,0,0,0-2,3.14,11.26,11.26,0,0,0,0,7.87,9.59,9.59,0,0,0,2,3.14,9.11,9.11,0,0,0,3,2.08,10.26,10.26,0,0,0,7.7,0,9.19,9.19,0,0,0,5-5.21,11.47,11.47,0,0,0,0-7.89Zm-18.58-124H113.1a1.12,1.12,0,0,0-1.12,1.12v19.9a1.12,1.12,0,0,0,1.12,1.12h17.81a1.12,1.12,0,0,0,1.12-1.12v-19.9A1.12,1.12,0,0,0,130.91,307.63ZM104.28,428.18a4,4,0,0,0-1.56-1.51,5.1,5.1,0,0,0-2.41-.55H96.77v8.23h3.54a5.48,5.48,0,0,0,2.44-.51,3.87,3.87,0,0,0,1.55-1.39,3.54,3.54,0,0,0,.56-2A4.33,4.33,0,0,0,104.28,428.18ZM466.47,226.07A232.93,232.93,0,0,0,398.25,68.35a233.27,233.27,0,0,0-74.17-50A232.42,232.42,0,0,0,280.26,4.74a235.44,235.44,0,0,0-94,0A233,233,0,0,0,0,226.07c0,.25,0,.5,0,.75V447.26a20.9,20.9,0,0,0,1.85,8.61,21.89,21.89,0,0,0,5,7,23.44,23.44,0,0,0,7.44,4.74,24.64,24.64,0,0,0,9.12,1.74H443.11a24.64,24.64,0,0,0,9.12-1.74,23.55,23.55,0,0,0,7.44-4.74,22,22,0,0,0,5-7,21.06,21.06,0,0,0,1.85-8.61V228C466.51,227.36,466.5,226.71,466.47,226.07ZM78.93,448.92a1.51,1.51,0,0,1-1.51,1.5H60.27a1.5,1.5,0,0,1-1.51-1.5V351.33a1.51,1.51,0,0,0-1.51-1.51h-17a1.5,1.5,0,0,0-1.51,1.51v97.59a1.51,1.51,0,0,1-1.51,1.5H20.05a1.5,1.5,0,0,1-1.51-1.5V289a1.51,1.51,0,0,1,1.51-1.51H37.2A1.52,1.52,0,0,1,38.71,289v39.29a1.51,1.51,0,0,0,1.51,1.51h17a1.52,1.52,0,0,0,1.51-1.51V289a1.51,1.51,0,0,1,1.51-1.51H77.42A1.52,1.52,0,0,1,78.93,289Zm32.22.09a2.65,2.65,0,0,1-2.49,1.45,2.81,2.81,0,0,1-2.45-1.37l-5.79-9.33H96.77v7.85a2.83,2.83,0,0,1-.8,2,2.86,2.86,0,0,1-4.9-2V423.56a2.76,2.76,0,0,1,.84-2.05,2.79,2.79,0,0,1,2-.8h6.39a10.84,10.84,0,0,1,5.21,1.24,9.24,9.24,0,0,1,3.6,3.44,9.91,9.91,0,0,1,1.29,5.06,9.11,9.11,0,0,1-1.3,4.82,8.79,8.79,0,0,1-3,3l4.87,7.83A2.84,2.84,0,0,1,111.15,449Zm.83-98v57.3a1.12,1.12,0,0,1-1.12,1.12H92.93a1.13,1.13,0,0,1-1.12-1.12V299.63a11.71,11.71,0,0,1,3.6-8.58,11.35,11.35,0,0,1,8.46-3.59H140a11.49,11.49,0,0,1,8.58,3.59,11.74,11.74,0,0,1,3.59,8.58V408.35a1.12,1.12,0,0,1-1.12,1.12H133.15a1.12,1.12,0,0,1-1.12-1.12v-57.3a1.12,1.12,0,0,0-1.12-1.12H113.1A1.12,1.12,0,0,0,112,351.05Zm42.67,90.62a14.34,14.34,0,0,1-3.14,4.85,14.11,14.11,0,0,1-4.79,3.17,17.09,17.09,0,0,1-12.17,0,13.92,13.92,0,0,1-4.8-3.17,14.45,14.45,0,0,1-3.12-4.85,16.54,16.54,0,0,1-1.1-6.1,16.25,16.25,0,0,1,1.11-6.09,14.28,14.28,0,0,1,3.11-4.83,14.09,14.09,0,0,1,4.79-3.18,16.35,16.35,0,0,1,6.1-1.12,16,16,0,0,1,6.08,1.13,14.08,14.08,0,0,1,7.92,8,16.25,16.25,0,0,1,1.11,6.09A16.54,16.54,0,0,1,154.65,441.67Zm37.72,8a2.8,2.8,0,0,1-2,.83H175.64a2.74,2.74,0,0,1-2-.84,2.83,2.83,0,0,1-.8-2V423.56a2.83,2.83,0,0,1,.83-2,2.9,2.9,0,0,1,4,0,2.82,2.82,0,0,1,.82,2v21.2h11.87a2.86,2.86,0,0,1,2,4.87ZM165.24,288.71a1.12,1.12,0,0,1,1.11-1.25h17.92a1.11,1.11,0,0,1,1.11,1l10.25,79.32a1.12,1.12,0,0,0,2.22,0l10.35-79.33a1.11,1.11,0,0,1,1.1-1h17.93a1.12,1.12,0,0,1,1.11,1.25L214.12,408.48a1.13,1.13,0,0,1-1.11,1H180.57a1.12,1.12,0,0,1-1.11-1Zm58.57,144a2.8,2.8,0,0,1,2,.76,2.74,2.74,0,0,1,0,3.89,2.76,2.76,0,0,1-2,.76h-9.19v6.89h13.21a2.79,2.79,0,0,1,2,.73,2.54,2.54,0,0,1,.82,1.94,2.7,2.7,0,0,1-.8,2,2.82,2.82,0,0,1-2,.76H211.77a2.83,2.83,0,0,1-2.85-2.85V423.56a2.76,2.76,0,0,1,.84-2.05,2.79,2.79,0,0,1,2-.8h16.06a2.82,2.82,0,0,1,2,.76,2.68,2.68,0,0,1,.8,2,2.55,2.55,0,0,1-.82,1.94,2.84,2.84,0,0,1-2,.73H214.62v6.63Zm42,3.28a9.28,9.28,0,0,1-3.6,3.54,10.71,10.71,0,0,1-5.21,1.26h-4.25v6.78a2.83,2.83,0,0,1-.8,2,2.86,2.86,0,0,1-4.9-2V423.56a2.76,2.76,0,0,1,.84-2.05,2.79,2.79,0,0,1,2-.8H257a10.45,10.45,0,0,1,5.22,1.3,9.4,9.4,0,0,1,3.6,3.64,10.7,10.7,0,0,1,1.28,5.26A10.14,10.14,0,0,1,265.84,436Zm15.76-27.68v-57.3a1.12,1.12,0,0,0-1.12-1.12H262.67a1.12,1.12,0,0,0-1.12,1.12v57.3a1.13,1.13,0,0,1-1.12,1.12H242.5a1.12,1.12,0,0,1-1.12-1.12V299.63a11.74,11.74,0,0,1,3.59-8.58,11.35,11.35,0,0,1,8.46-3.59H289.6a11.48,11.48,0,0,1,8.57,3.59,11.71,11.71,0,0,1,3.6,8.58V408.35a1.13,1.13,0,0,1-1.12,1.12H282.72A1.12,1.12,0,0,1,281.6,408.35Zm20.45,41.28a2.81,2.81,0,0,1-2,.83H285.31a2.72,2.72,0,0,1-2-.84,2.83,2.83,0,0,1-.8-2V423.56a2.83,2.83,0,0,1,.83-2,2.9,2.9,0,0,1,4,0,2.82,2.82,0,0,1,.82,2v21.2H300a2.86,2.86,0,0,1,2,4.87ZM275.32,268.09c-4.94-3-6.82-1.1-6.82-1.1a7.37,7.37,0,0,1-8.16-1.27c-3.72-3.52-7-1-8.11-.31a3.26,3.26,0,0,1-2.68,0l-16.26-6.33v-8.65l-13.09-6.22-6.58,1.16v-9.44h-7.25V205.35h-4.2V175.51h-4.75v7.37h-3.29v10.41l-5,4.21v11.32h-4.08V180.87H179v16.44h-3.9v12.25H173v7.92h-2.5V178.61l-2.68-.06V164.36l-5.72-6.21-5.91,6.15v14.44h-2.62v47.69h-5.11v6h-4V213.88l-14-7.13V244.7h-1.65V251h-3.9V168.56h-5V157l-12.43,5.24v6H104.9v41.29H99.41v32.16H95.76V226.31H89.91v-4H72.37v4h-4v-8.77l-9.87-3.66V186.1H45.33v26.68H34.73v12.06H18.54C23,110.15,117.38,18.55,233.17,18.55A213.93,213.93,0,0,1,371.1,68.67l-94.4,3,102.54,4.22q3.94,3.66,7.7,7.51L250.52,86.61l141.55,2.2A214,214,0,0,1,448,233.34c0,12.78,0,26,0,38.65-8.33-18.9-21.08-18.91-26.69-15.76,4.42-9.11,10.42-29.74-3.2-60.8-14.16-32.07-33.71-41-43.67-41.3,4.75-.91,7.16-1.4,7.16-1.4l.25-4,2.56,4.46,15.47.65s-8-17.5-30.46-9.17c7-3.35,7.19-3.74,7.19-3.74l-1.38-4.26,5.24,2.19,5.36-3.9-2.07-3.53,3.78,2.07,5.35-3.53s-19.43-11.51-31.42,13.15c2.25-7.43,3.16-10,3.16-10l-1.34-2.44,2.8-.49,2.56-5.12s-17.54,4.57-13.89,21.2c-4.81,2.07-13.64,6.46-10.11,14.62,3.11-2.07,3.66-2.92,3.66-2.92l-.12-3.78,2.07,1L356,150.9c-.17.18-14.38,15.55-5.72,27.78l5.6,8,2.32-15L353.77,168l4.87-1.33v-4.39l-2.43-2.44,4-3.77s-3.54,26.06,21.8,26.55c-1.58-4.5-2.43-6.45-2.43-6.45l-4.51.24,2.68-3-4.26-4.63-4.76,1.09,2.81-4.51L368.88,163l1.58-4.63s35.08,7.86,44.1,50.07c5.7,25.45.34,39.7-4.63,46.9-1-.64-2.12-1.29-3.33-1.93a76.47,76.47,0,0,0-2.23-7.48l-2.72.52,2.4-1.44c-.89-2.51-2.05-5.45-3.53-8.67l-2.53.48,2.13-1.35c-1-2.13-2.12-4.38-3.4-6.72l-2.69.34,2.12-1.37c-1.26-2.24-2.65-4.56-4.2-6.92s-3.25-4.75-5.11-7.15l3.57.68,1.18-3.33,1.19,3.93L406,218.54S400.78,201,381.82,205l6.58-1.51-.18-4.34,4.47,3.11,4.94-2.2-.92-3.47,2.84,2.47,5.2-2.47s-15.12-12.51-29.42,5.58a86,86,0,0,1,4.94-7.86l-.74-1.93h2.11l3.1-4.1s-14.84.23-15.8,15.35c-1.37.23-12.38,1.69-12.06,11.6l4.61-2.92,0-2.47,2.28.55,5.36-2.58c-1.65,1-19.12,12-6.91,30.54,2.05-4.8,5.11-12.25,5.11-12.25l-3-3.83,4.38-.55.73-3.84-1.55-2.28,3.75-2.2c-.1.29-7.48,22.46,13.57,26.23-.51-3.84-.78-6.4-.78-6.4l-3.84.09,2.83-2.56-2.56-4.38-3.92-.18,3.19-3.3-2.19-2.64,2.38-3.29a73.37,73.37,0,0,1,6.9,9.32h3.75l-2.9,1.35c1.18,1.94,2.39,4.1,3.55,6.44l3.56-.36-3,1.47a70.34,70.34,0,0,1,2.82,6.87l3.07-.36L395.24,243a57.25,57.25,0,0,1,1.79,6.7c-11-2.4-23.27,11.31-25.54,13.94s-5.11,3.57-8,1.74c-7-4.48-13.79,6.58-13.79,6.58s-27.32-.05-41.94,0S280.25,271.07,275.32,268.09Zm39.33,140.26V288.58a1.12,1.12,0,0,1,1.12-1.12H336a1.12,1.12,0,0,1,.93.51l15.93,24.19a1.12,1.12,0,0,0,2.05-.62v-23a1.12,1.12,0,0,1,1.12-1.12h17.93a1.12,1.12,0,0,1,1.12,1.12V408.35a1.12,1.12,0,0,1-1.12,1.12H356a1.12,1.12,0,0,1-1.12-1.12V351.07a1.16,1.16,0,0,0-.17-.6l-17.81-28.11a1.12,1.12,0,0,0-2.07.6v85.39a1.12,1.12,0,0,1-1.12,1.12H315.77A1.12,1.12,0,0,1,314.65,408.35Zm26.42,40.85a2.73,2.73,0,0,1-2.39,1.26,2.89,2.89,0,0,1-1.55-.46,2.68,2.68,0,0,1-1.08-1.31l-1.75-4.34H322.91l-1.78,4.35A2.73,2.73,0,0,1,320,450a2.85,2.85,0,0,1-1.49.43,2.7,2.7,0,0,1-2.38-1.32,2.83,2.83,0,0,1-.17-2.75l10-23.82a2.8,2.8,0,0,1,2.66-1.86,2.72,2.72,0,0,1,2.68,1.89l10,23.88A2.89,2.89,0,0,1,341.07,449.2Zm34.52-24.08-9.41,14.51v8a2.83,2.83,0,1,1-5.66,0v-8l-9.32-14.5a3,3,0,0,1-.5-2.1,2.69,2.69,0,0,1,1-1.7,2.86,2.86,0,0,1,1.82-.62,2.57,2.57,0,0,1,1.55.46,3.87,3.87,0,0,1,.92,1l7.48,11.86,7.61-12a3,3,0,0,1,1-1,2.78,2.78,0,0,1,1.46-.37,2.42,2.42,0,0,1,1.79.75,2.82,2.82,0,0,1,.77,1.69A3.07,3.07,0,0,1,375.59,425.12Zm72.73,24.19a1.12,1.12,0,0,1-1.12,1.11H429.27a1.12,1.12,0,0,1-1.12-1.11V351.05a1.12,1.12,0,0,0-1.12-1.12H409.22a1.12,1.12,0,0,0-1.12,1.12v98.26a1.12,1.12,0,0,1-1.12,1.11H389.05a1.12,1.12,0,0,1-1.12-1.11V299.63a11.74,11.74,0,0,1,3.59-8.58,11.35,11.35,0,0,1,8.46-3.59h36.17a11.48,11.48,0,0,1,8.57,3.59,11.71,11.71,0,0,1,3.6,8.58ZM427,307.63H409.22a1.12,1.12,0,0,0-1.12,1.12v19.9a1.12,1.12,0,0,0,1.12,1.12H427a1.12,1.12,0,0,0,1.12-1.12v-19.9A1.12,1.12,0,0,0,427,307.63ZM325,439.29h7.28l-3.61-9Zm-44.5-131.66H262.67a1.12,1.12,0,0,0-1.12,1.12v19.9a1.12,1.12,0,0,0,1.12,1.12h17.81a1.12,1.12,0,0,0,1.12-1.12v-19.9A1.12,1.12,0,0,0,280.48,307.63ZM259.4,426.72a4.54,4.54,0,0,0-2.37-.6h-4.25v9.3H257a4.64,4.64,0,0,0,2.38-.58,4.23,4.23,0,0,0,1.59-1.58,4.6,4.6,0,0,0,.58-2.35,5.18,5.18,0,0,0-.59-2.52A4.33,4.33,0,0,0,259.4,426.72ZM147.52,428.5a9,9,0,0,0-3-2.07,10.44,10.44,0,0,0-7.72,0,8.88,8.88,0,0,0-3,2.06,9.69,9.69,0,0,0-2,3.14,11.26,11.26,0,0,0,0,7.87,9.59,9.59,0,0,0,2,3.14,9.11,9.11,0,0,0,3,2.08,10.26,10.26,0,0,0,7.7,0,9.19,9.19,0,0,0,5-5.21,11.47,11.47,0,0,0,0-7.89A9.1,9.1,0,0,0,147.52,428.5ZM132,328.65v-19.9a1.12,1.12,0,0,0-1.12-1.12H113.1a1.12,1.12,0,0,0-1.12,1.12v19.9a1.12,1.12,0,0,0,1.12,1.12h17.81A1.12,1.12,0,0,0,132,328.65Zm-29.31,98a5.1,5.1,0,0,0-2.41-.55H96.77v8.23h3.54a5.48,5.48,0,0,0,2.44-.51,3.87,3.87,0,0,0,1.55-1.39,3.54,3.54,0,0,0,.56-2,4.33,4.33,0,0,0-.58-2.27A4,4,0,0,0,102.72,426.67Zm1.56,1.51a4,4,0,0,0-1.56-1.51,5.1,5.1,0,0,0-2.41-.55H96.77v8.23h3.54a5.48,5.48,0,0,0,2.44-.51,3.87,3.87,0,0,0,1.55-1.39,3.54,3.54,0,0,0,.56-2A4.33,4.33,0,0,0,104.28,428.18Zm26.63-120.55H113.1a1.12,1.12,0,0,0-1.12,1.12v19.9a1.12,1.12,0,0,0,1.12,1.12h17.81a1.12,1.12,0,0,0,1.12-1.12v-19.9A1.12,1.12,0,0,0,130.91,307.63Zm18.58,124a9.1,9.1,0,0,0-2-3.12,9,9,0,0,0-3-2.07,10.44,10.44,0,0,0-7.72,0,8.88,8.88,0,0,0-3,2.06,9.69,9.69,0,0,0-2,3.14,11.26,11.26,0,0,0,0,7.87,9.59,9.59,0,0,0,2,3.14,9.11,9.11,0,0,0,3,2.08,10.26,10.26,0,0,0,7.7,0,9.19,9.19,0,0,0,5-5.21,11.47,11.47,0,0,0,0-7.89ZM261,428.39a4.33,4.33,0,0,0-1.59-1.67,4.54,4.54,0,0,0-2.37-.6h-4.25v9.3H257a4.64,4.64,0,0,0,2.38-.58,4.23,4.23,0,0,0,1.59-1.58,4.6,4.6,0,0,0,.58-2.35A5.18,5.18,0,0,0,261,428.39Zm19.49-120.76H262.67a1.12,1.12,0,0,0-1.12,1.12v19.9a1.12,1.12,0,0,0,1.12,1.12h17.81a1.12,1.12,0,0,0,1.12-1.12v-19.9A1.12,1.12,0,0,0,280.48,307.63Zm48.17,122.69-3.67,9h7.28ZM427,307.63H409.22a1.12,1.12,0,0,0-1.12,1.12v19.9a1.12,1.12,0,0,0,1.12,1.12H427a1.12,1.12,0,0,0,1.12-1.12v-19.9A1.12,1.12,0,0,0,427,307.63Zm0,0H409.22a1.12,1.12,0,0,0-1.12,1.12v19.9a1.12,1.12,0,0,0,1.12,1.12H427a1.12,1.12,0,0,0,1.12-1.12v-19.9A1.12,1.12,0,0,0,427,307.63ZM328.65,430.32l-3.67,9h7.28ZM280.48,307.63H262.67a1.12,1.12,0,0,0-1.12,1.12v19.9a1.12,1.12,0,0,0,1.12,1.12h17.81a1.12,1.12,0,0,0,1.12-1.12v-19.9A1.12,1.12,0,0,0,280.48,307.63ZM261,428.39a4.33,4.33,0,0,0-1.59-1.67,4.54,4.54,0,0,0-2.37-.6h-4.25v9.3H257a4.64,4.64,0,0,0,2.38-.58,4.23,4.23,0,0,0,1.59-1.58,4.6,4.6,0,0,0,.58-2.35A5.18,5.18,0,0,0,261,428.39Zm-111.5,3.23a9.1,9.1,0,0,0-2-3.12,9,9,0,0,0-3-2.07,10.44,10.44,0,0,0-7.72,0,8.88,8.88,0,0,0-3,2.06,9.69,9.69,0,0,0-2,3.14,11.26,11.26,0,0,0,0,7.87,9.59,9.59,0,0,0,2,3.14,9.11,9.11,0,0,0,3,2.08,10.26,10.26,0,0,0,7.7,0,9.19,9.19,0,0,0,5-5.21,11.47,11.47,0,0,0,0-7.89Zm-18.58-124H113.1a1.12,1.12,0,0,0-1.12,1.12v19.9a1.12,1.12,0,0,0,1.12,1.12h17.81a1.12,1.12,0,0,0,1.12-1.12v-19.9A1.12,1.12,0,0,0,130.91,307.63ZM104.28,428.18a4,4,0,0,0-1.56-1.51,5.1,5.1,0,0,0-2.41-.55H96.77v8.23h3.54a5.48,5.48,0,0,0,2.44-.51,3.87,3.87,0,0,0,1.55-1.39,3.54,3.54,0,0,0,.56-2A4.33,4.33,0,0,0,104.28,428.18Zm0,0a4,4,0,0,0-1.56-1.51,5.1,5.1,0,0,0-2.41-.55H96.77v8.23h3.54a5.48,5.48,0,0,0,2.44-.51,3.87,3.87,0,0,0,1.55-1.39,3.54,3.54,0,0,0,.56-2A4.33,4.33,0,0,0,104.28,428.18Zm26.63-120.55H113.1a1.12,1.12,0,0,0-1.12,1.12v19.9a1.12,1.12,0,0,0,1.12,1.12h17.81a1.12,1.12,0,0,0,1.12-1.12v-19.9A1.12,1.12,0,0,0,130.91,307.63Zm18.58,124a9.1,9.1,0,0,0-2-3.12,9,9,0,0,0-3-2.07,10.44,10.44,0,0,0-7.72,0,8.88,8.88,0,0,0-3,2.06,9.69,9.69,0,0,0-2,3.14,11.26,11.26,0,0,0,0,7.87,9.59,9.59,0,0,0,2,3.14,9.11,9.11,0,0,0,3,2.08,10.26,10.26,0,0,0,7.7,0,9.19,9.19,0,0,0,5-5.21,11.47,11.47,0,0,0,0-7.89ZM261,428.39a4.33,4.33,0,0,0-1.59-1.67,4.54,4.54,0,0,0-2.37-.6h-4.25v9.3H257a4.64,4.64,0,0,0,2.38-.58,4.23,4.23,0,0,0,1.59-1.58,4.6,4.6,0,0,0,.58-2.35A5.18,5.18,0,0,0,261,428.39Zm19.49-120.76H262.67a1.12,1.12,0,0,0-1.12,1.12v19.9a1.12,1.12,0,0,0,1.12,1.12h17.81a1.12,1.12,0,0,0,1.12-1.12v-19.9A1.12,1.12,0,0,0,280.48,307.63Zm48.17,122.69-3.67,9h7.28ZM427,307.63H409.22a1.12,1.12,0,0,0-1.12,1.12v19.9a1.12,1.12,0,0,0,1.12,1.12H427a1.12,1.12,0,0,0,1.12-1.12v-19.9A1.12,1.12,0,0,0,427,307.63Zm0,0H409.22a1.12,1.12,0,0,0-1.12,1.12v19.9a1.12,1.12,0,0,0,1.12,1.12H427a1.12,1.12,0,0,0,1.12-1.12v-19.9A1.12,1.12,0,0,0,427,307.63ZM328.65,430.32l-3.67,9h7.28ZM280.48,307.63H262.67a1.12,1.12,0,0,0-1.12,1.12v19.9a1.12,1.12,0,0,0,1.12,1.12h17.81a1.12,1.12,0,0,0,1.12-1.12v-19.9A1.12,1.12,0,0,0,280.48,307.63ZM261,428.39a4.33,4.33,0,0,0-1.59-1.67,4.54,4.54,0,0,0-2.37-.6h-4.25v9.3H257a4.64,4.64,0,0,0,2.38-.58,4.23,4.23,0,0,0,1.59-1.58,4.6,4.6,0,0,0,.58-2.35A5.18,5.18,0,0,0,261,428.39Zm-111.5,3.23a9.1,9.1,0,0,0-2-3.12,9,9,0,0,0-3-2.07,10.44,10.44,0,0,0-7.72,0,8.88,8.88,0,0,0-3,2.06,9.69,9.69,0,0,0-2,3.14,11.26,11.26,0,0,0,0,7.87,9.59,9.59,0,0,0,2,3.14,9.11,9.11,0,0,0,3,2.08,10.26,10.26,0,0,0,7.7,0,9.19,9.19,0,0,0,5-5.21,11.47,11.47,0,0,0,0-7.89Zm-18.58-124H113.1a1.12,1.12,0,0,0-1.12,1.12v19.9a1.12,1.12,0,0,0,1.12,1.12h17.81a1.12,1.12,0,0,0,1.12-1.12v-19.9A1.12,1.12,0,0,0,130.91,307.63ZM104.28,428.18a4,4,0,0,0-1.56-1.51,5.1,5.1,0,0,0-2.41-.55H96.77v8.23h3.54a5.48,5.48,0,0,0,2.44-.51,3.87,3.87,0,0,0,1.55-1.39,3.54,3.54,0,0,0,.56-2A4.33,4.33,0,0,0,104.28,428.18Zm0,0a4,4,0,0,0-1.56-1.51,5.1,5.1,0,0,0-2.41-.55H96.77v8.23h3.54a5.48,5.48,0,0,0,2.44-.51,3.87,3.87,0,0,0,1.55-1.39,3.54,3.54,0,0,0,.56-2A4.33,4.33,0,0,0,104.28,428.18Zm26.63-120.55H113.1a1.12,1.12,0,0,0-1.12,1.12v19.9a1.12,1.12,0,0,0,1.12,1.12h17.81a1.12,1.12,0,0,0,1.12-1.12v-19.9A1.12,1.12,0,0,0,130.91,307.63Zm18.58,124a9.1,9.1,0,0,0-2-3.12,9,9,0,0,0-3-2.07,10.44,10.44,0,0,0-7.72,0,8.88,8.88,0,0,0-3,2.06,9.69,9.69,0,0,0-2,3.14,11.26,11.26,0,0,0,0,7.87,9.59,9.59,0,0,0,2,3.14,9.11,9.11,0,0,0,3,2.08,10.26,10.26,0,0,0,7.7,0,9.19,9.19,0,0,0,5-5.21,11.47,11.47,0,0,0,0-7.89ZM261,428.39a4.33,4.33,0,0,0-1.59-1.67,4.54,4.54,0,0,0-2.37-.6h-4.25v9.3H257a4.64,4.64,0,0,0,2.38-.58,4.23,4.23,0,0,0,1.59-1.58,4.6,4.6,0,0,0,.58-2.35A5.18,5.18,0,0,0,261,428.39Zm19.49-120.76H262.67a1.12,1.12,0,0,0-1.12,1.12v19.9a1.12,1.12,0,0,0,1.12,1.12h17.81a1.12,1.12,0,0,0,1.12-1.12v-19.9A1.12,1.12,0,0,0,280.48,307.63Zm146.55,0H409.22a1.12,1.12,0,0,0-1.12,1.12v19.9a1.12,1.12,0,0,0,1.12,1.12H427a1.12,1.12,0,0,0,1.12-1.12v-19.9A1.12,1.12,0,0,0,427,307.63Zm0,0H409.22a1.12,1.12,0,0,0-1.12,1.12v19.9a1.12,1.12,0,0,0,1.12,1.12H427a1.12,1.12,0,0,0,1.12-1.12v-19.9A1.12,1.12,0,0,0,427,307.63Zm-146.55,0H262.67a1.12,1.12,0,0,0-1.12,1.12v19.9a1.12,1.12,0,0,0,1.12,1.12h17.81a1.12,1.12,0,0,0,1.12-1.12v-19.9A1.12,1.12,0,0,0,280.48,307.63ZM261,428.39a4.33,4.33,0,0,0-1.59-1.67,4.54,4.54,0,0,0-2.37-.6h-4.25v9.3H257a4.64,4.64,0,0,0,2.38-.58,4.23,4.23,0,0,0,1.59-1.58,4.6,4.6,0,0,0,.58-2.35A5.18,5.18,0,0,0,261,428.39Zm-111.5,3.23a9.1,9.1,0,0,0-2-3.12,9,9,0,0,0-3-2.07,10.44,10.44,0,0,0-7.72,0,8.88,8.88,0,0,0-3,2.06,9.69,9.69,0,0,0-2,3.14,11.26,11.26,0,0,0,0,7.87,9.59,9.59,0,0,0,2,3.14,9.11,9.11,0,0,0,3,2.08,10.26,10.26,0,0,0,7.7,0,9.19,9.19,0,0,0,5-5.21,11.47,11.47,0,0,0,0-7.89Zm-18.58-124H113.1a1.12,1.12,0,0,0-1.12,1.12v19.9a1.12,1.12,0,0,0,1.12,1.12h17.81a1.12,1.12,0,0,0,1.12-1.12v-19.9A1.12,1.12,0,0,0,130.91,307.63ZM104.28,428.18a4,4,0,0,0-1.56-1.51,5.1,5.1,0,0,0-2.41-.55H96.77v8.23h3.54a5.48,5.48,0,0,0,2.44-.51,3.87,3.87,0,0,0,1.55-1.39,3.54,3.54,0,0,0,.56-2A4.33,4.33,0,0,0,104.28,428.18Zm26.63-120.55H113.1a1.12,1.12,0,0,0-1.12,1.12v19.9a1.12,1.12,0,0,0,1.12,1.12h17.81a1.12,1.12,0,0,0,1.12-1.12v-19.9A1.12,1.12,0,0,0,130.91,307.63Zm18.58,124a9.1,9.1,0,0,0-2-3.12,9,9,0,0,0-3-2.07,10.44,10.44,0,0,0-7.72,0,8.88,8.88,0,0,0-3,2.06,9.69,9.69,0,0,0-2,3.14,11.26,11.26,0,0,0,0,7.87,9.59,9.59,0,0,0,2,3.14,9.11,9.11,0,0,0,3,2.08,10.26,10.26,0,0,0,7.7,0,9.19,9.19,0,0,0,5-5.21,11.47,11.47,0,0,0,0-7.89Zm131-124H262.67a1.12,1.12,0,0,0-1.12,1.12v19.9a1.12,1.12,0,0,0,1.12,1.12h17.81a1.12,1.12,0,0,0,1.12-1.12v-19.9A1.12,1.12,0,0,0,280.48,307.63Zm146.55,0H409.22a1.12,1.12,0,0,0-1.12,1.12v19.9a1.12,1.12,0,0,0,1.12,1.12H427a1.12,1.12,0,0,0,1.12-1.12v-19.9A1.12,1.12,0,0,0,427,307.63Zm0,0H409.22a1.12,1.12,0,0,0-1.12,1.12v19.9a1.12,1.12,0,0,0,1.12,1.12H427a1.12,1.12,0,0,0,1.12-1.12v-19.9A1.12,1.12,0,0,0,427,307.63Zm-146.55,0H262.67a1.12,1.12,0,0,0-1.12,1.12v19.9a1.12,1.12,0,0,0,1.12,1.12h17.81a1.12,1.12,0,0,0,1.12-1.12v-19.9A1.12,1.12,0,0,0,280.48,307.63Zm-131,124a9.1,9.1,0,0,0-2-3.12,9,9,0,0,0-3-2.07,10.44,10.44,0,0,0-7.72,0,8.88,8.88,0,0,0-3,2.06,9.69,9.69,0,0,0-2,3.14,11.26,11.26,0,0,0,0,7.87,9.59,9.59,0,0,0,2,3.14,9.11,9.11,0,0,0,3,2.08,10.26,10.26,0,0,0,7.7,0,9.19,9.19,0,0,0,5-5.21,11.47,11.47,0,0,0,0-7.89Zm-18.58-124H113.1a1.12,1.12,0,0,0-1.12,1.12v19.9a1.12,1.12,0,0,0,1.12,1.12h17.81a1.12,1.12,0,0,0,1.12-1.12v-19.9A1.12,1.12,0,0,0,130.91,307.63Zm0,0H113.1a1.12,1.12,0,0,0-1.12,1.12v19.9a1.12,1.12,0,0,0,1.12,1.12h17.81a1.12,1.12,0,0,0,1.12-1.12v-19.9A1.12,1.12,0,0,0,130.91,307.63Zm149.57,0H262.67a1.12,1.12,0,0,0-1.12,1.12v19.9a1.12,1.12,0,0,0,1.12,1.12h17.81a1.12,1.12,0,0,0,1.12-1.12v-19.9A1.12,1.12,0,0,0,280.48,307.63Zm146.55,0H409.22a1.12,1.12,0,0,0-1.12,1.12v19.9a1.12,1.12,0,0,0,1.12,1.12H427a1.12,1.12,0,0,0,1.12-1.12v-19.9A1.12,1.12,0,0,0,427,307.63Zm0,0H409.22a1.12,1.12,0,0,0-1.12,1.12v19.9a1.12,1.12,0,0,0,1.12,1.12H427a1.12,1.12,0,0,0,1.12-1.12v-19.9A1.12,1.12,0,0,0,427,307.63Zm-146.55,0H262.67a1.12,1.12,0,0,0-1.12,1.12v19.9a1.12,1.12,0,0,0,1.12,1.12h17.81a1.12,1.12,0,0,0,1.12-1.12v-19.9A1.12,1.12,0,0,0,280.48,307.63Zm-149.57,0H113.1a1.12,1.12,0,0,0-1.12,1.12v19.9a1.12,1.12,0,0,0,1.12,1.12h17.81a1.12,1.12,0,0,0,1.12-1.12v-19.9A1.12,1.12,0,0,0,130.91,307.63Zm0,0H113.1a1.12,1.12,0,0,0-1.12,1.12v19.9a1.12,1.12,0,0,0,1.12,1.12h17.81a1.12,1.12,0,0,0,1.12-1.12v-19.9A1.12,1.12,0,0,0,130.91,307.63Zm149.57,0H262.67a1.12,1.12,0,0,0-1.12,1.12v19.9a1.12,1.12,0,0,0,1.12,1.12h17.81a1.12,1.12,0,0,0,1.12-1.12v-19.9A1.12,1.12,0,0,0,280.48,307.63Zm146.55,0H409.22a1.12,1.12,0,0,0-1.12,1.12v19.9a1.12,1.12,0,0,0,1.12,1.12H427a1.12,1.12,0,0,0,1.12-1.12v-19.9A1.12,1.12,0,0,0,427,307.63Zm0,0H409.22a1.12,1.12,0,0,0-1.12,1.12v19.9a1.12,1.12,0,0,0,1.12,1.12H427a1.12,1.12,0,0,0,1.12-1.12v-19.9A1.12,1.12,0,0,0,427,307.63Zm-146.55,0H262.67a1.12,1.12,0,0,0-1.12,1.12v19.9a1.12,1.12,0,0,0,1.12,1.12h17.81a1.12,1.12,0,0,0,1.12-1.12v-19.9A1.12,1.12,0,0,0,280.48,307.63Zm-149.57,0H113.1a1.12,1.12,0,0,0-1.12,1.12v19.9a1.12,1.12,0,0,0,1.12,1.12h17.81a1.12,1.12,0,0,0,1.12-1.12v-19.9A1.12,1.12,0,0,0,130.91,307.63Zm149.57,0H262.67a1.12,1.12,0,0,0-1.12,1.12v19.9a1.12,1.12,0,0,0,1.12,1.12h17.81a1.12,1.12,0,0,0,1.12-1.12v-19.9A1.12,1.12,0,0,0,280.48,307.63Zm146.55,0H409.22a1.12,1.12,0,0,0-1.12,1.12v19.9a1.12,1.12,0,0,0,1.12,1.12H427a1.12,1.12,0,0,0,1.12-1.12v-19.9A1.12,1.12,0,0,0,427,307.63Zm0,0H409.22a1.12,1.12,0,0,0-1.12,1.12v19.9a1.12,1.12,0,0,0,1.12,1.12H427a1.12,1.12,0,0,0,1.12-1.12v-19.9A1.12,1.12,0,0,0,427,307.63Zm-146.55,0H262.67a1.12,1.12,0,0,0-1.12,1.12v19.9a1.12,1.12,0,0,0,1.12,1.12h17.81a1.12,1.12,0,0,0,1.12-1.12v-19.9A1.12,1.12,0,0,0,280.48,307.63Zm146.55,0H409.22a1.12,1.12,0,0,0-1.12,1.12v19.9a1.12,1.12,0,0,0,1.12,1.12H427a1.12,1.12,0,0,0,1.12-1.12v-19.9A1.12,1.12,0,0,0,427,307.63Zm0,0H409.22a1.12,1.12,0,0,0-1.12,1.12v19.9a1.12,1.12,0,0,0,1.12,1.12H427a1.12,1.12,0,0,0,1.12-1.12v-19.9A1.12,1.12,0,0,0,427,307.63Z"/></g></g></g></g></svg>