<?xml version="1.0" encoding="UTF-8"?><svg xmlns="http://www.w3.org/2000/svg" viewBox="0 0 459.64 174.28"><defs><style>.e{fill:#fff;}</style></defs><g id="a"/><g id="b"><g id="c"><g id="d"><g><path class="e" d="M62.97,0h-18.34c-.89,0-1.62,.72-1.62,1.61V43.63c0,.89-.72,1.61-1.61,1.61H23.18c-.89,0-1.61-.72-1.61-1.61V1.61c0-.89-.72-1.61-1.62-1.61H1.61C.72,0,0,.72,0,1.61V172.67c0,.89,.72,1.61,1.61,1.61H19.95c.9,0,1.62-.72,1.62-1.61V68.3c0-.89,.72-1.61,1.61-1.61h18.22c.89,0,1.61,.72,1.61,1.61v104.37c0,.89,.73,1.61,1.62,1.61h18.34c.89,0,1.61-.72,1.61-1.61V1.61c0-.89-.72-1.61-1.61-1.61Z"/><path class="e" d="M139.11,3.84c-2.48-2.56-5.54-3.84-9.18-3.84h-38.67c-3.56,0-6.57,1.28-9.05,3.84-2.56,2.56-3.84,5.62-3.84,9.17V96.84h5.01v-8.15h7.16v-18.04h6.12v18.78l3.27,.85v-22.27c0-.66,.54-1.2,1.2-1.2h19.05c.66,0,1.2,.54,1.2,1.2v29.82h3.25v10.37h2.47v-21.74h3.71v-27.91h1.77v-4.04l8.4-3.54v7.83h1.97V13.01c0-3.55-1.28-6.61-3.84-9.17Zm-17.73,40.2c0,.66-.54,1.2-1.2,1.2h-19.05c-.66,0-1.2-.54-1.2-1.2V22.76c0-.66,.54-1.2,1.2-1.2h19.05c.66,0,1.2,.54,1.2,1.2v21.28Z"/><path class="e" d="M223.19,0h-19.17c-.6,0-1.11,.44-1.19,1.04l-8.14,62.45h1.87v20.17h2.84v20.67h4.9v6.38l4.45-.78,2.59,1.23L224.38,1.33c.08-.71-.47-1.33-1.19-1.33Zm-44.75,1.04c-.08-.6-.59-1.04-1.19-1.04h-19.17c-.72,0-1.27,.62-1.19,1.33l7.64,64.34h.95v-9.76l3.99-4.15,3.87,4.2v9.59l1.81,.04v26.27h1.69v-5.36h1.4v-8.27h2.63v-11.12h4.12v18.9h2.76v-7.66l.6-.51L178.44,1.04Z"/><path class="e" d="M302.9,32.83V13.01c0-3.55-1.28-6.61-3.84-9.17-2.48-2.56-5.54-3.84-9.17-3.84h-38.68c-3.55,0-6.57,1.28-9.05,3.84-2.56,2.56-3.84,5.62-3.84,9.17V125.73c1.68,.31,3.08-.4,3.08-.4,0,0,1.27-1.28,4.61,.74,2.38,1.45,7.52,2.19,13.88,2.48v-60.54c0-.66,.54-1.2,1.2-1.2h19.05c.66,0,1.2,.54,1.2,1.2v60.68c7.78,0,14.92,.02,14.92,.02,0,0,3-4.87,6.64-5.16v-20.96c-1.66-4.05-1.22-7.45,0-10.14v-3.22c-.43,.27-1.01,.64-1.77,1.12-.07-2.2,.69-3.78,1.77-4.92V50.78l-2.22,2.09,1.65,1.64v2.97l-3.3,.9,2.97,2.47-1.57,10.17-3.78-5.39c-5.75-8.12,3.41-18.27,3.85-18.75l-3.85,2.86-1.4-.66,.08,2.55s-.37,.58-2.47,1.98c-2.39-5.52,3.58-8.48,6.83-9.88-1.15-5.22,.8-8.69,3.21-10.9Zm-21.56,11.21c0,.66-.54,1.2-1.2,1.2h-19.05c-.66,0-1.2-.54-1.2-1.2V22.76c0-.66,.54-1.2,1.2-1.2h19.05c.66,0,1.2,.54,1.2,1.2v21.28Z"/><path class="e" d="M316.69,54.31v10.07c.25,.63,.75,1.88,1.45,3.89-.5,0-.98-.03-1.45-.07v4.55c1.83-.59,3.28-.61,3.28-.61l-2.1,2.76h-1.18v3.39c8.64-7.3,16.81-.53,16.81-.53l-3.52,1.66-1.92-1.66,.62,2.34-3.34,1.48-3.02-2.1,.12,2.94-4.45,1.02c12.82-2.75,16.37,9.14,16.37,9.14l-8.96-2.47-.8-2.66-.8,2.26-2.41-.47c2.52,3.25,4.59,6.48,6.29,9.52l-1.43,.92,1.82-.23c.86,1.58,1.62,3.1,2.3,4.54l-1.44,.92,1.71-.33c.99,2.18,1.78,4.16,2.38,5.86l-1.62,.97,1.84-.35c.86,2.47,1.32,4.26,1.5,5.06,.81,.43,1.57,.88,2.25,1.31,.42-.61,.85-1.3,1.27-2.07v-36.27c-5.09-14.48-15.03-21.55-21.57-24.78ZM380.07,0h-19.17c-.66,0-1.2,.53-1.2,1.19V25.75c0,1.19-1.54,1.65-2.2,.66L340.47,.53c-.22-.33-.6-.53-1-.53h-21.59c-.66,0-1.19,.53-1.19,1.19V30.98c4.87-.6,8.78,1.71,8.78,1.71l-3.63,2.39-2.55-1.4,1.4,2.39-3.62,2.63-.38-.16v2.58c9.8-.34,13.5,7.71,13.5,7.71l-10.46-.44-1.73-3.02-.16,2.72s-.38,.08-1.15,.23v1.3c5.97,1.62,14.31,6.87,21.57,19.06v-30.72c0-1.2,1.56-1.65,2.2-.64l19.06,30.06c.12,.2,.18,.42,.18,.64v58.16c.39,.78,.77,1.62,1.15,2.53,.25,.59,.51,1.18,.78,1.77h18.44c.66,0,1.2-.54,1.2-1.2V1.19c0-.66-.54-1.19-1.2-1.19Zm-51.14,108.24l-2.08,.25c-.57-1.63-1.22-3.19-1.91-4.65l2.05-.99-2.41,.25c-.78-1.59-1.6-3.05-2.4-4.36l1.97-.91h-2.54c-2.49-3.93-4.67-6.3-4.67-6.3l-.25,.35v5.98l.62,.03,1.73,2.96-1.91,1.73,2.59-.06s.19,1.73,.53,4.32c-1.36-.24-2.54-.6-3.56-1.04v11.85c3.31-2.58,7.57-4.86,11.59-3.98-.31-1.56-.73-3.08-1.21-4.54l1.86-.89Z"/><path class="e" d="M455.79,3.84c-2.48-2.56-5.53-3.84-9.17-3.84h-38.67c-3.56,0-6.57,1.28-9.05,3.84-2.57,2.56-3.85,5.62-3.85,9.17V173.08c0,.67,.54,1.2,1.2,1.2h19.18c.66,0,1.19-.53,1.19-1.2V68.01c0-.66,.54-1.2,1.2-1.2h19.05c.66,0,1.2,.54,1.2,1.2v105.07c0,.67,.53,1.2,1.19,1.2h19.18c.66,0,1.2-.53,1.2-1.2V13.01c0-3.55-1.29-6.61-3.85-9.17Zm-17.72,40.2c0,.66-.54,1.2-1.2,1.2h-19.05c-.66,0-1.2-.54-1.2-1.2V22.76c0-.66,.54-1.2,1.2-1.2h19.05c.66,0,1.2,.54,1.2,1.2v21.28Z"/></g></g></g></g></svg>